<svg xmlns="http://www.w3.org/2000/svg" viewBox="0 0 800 420" width="800" height="420">
<defs>
  <linearGradient id="metal" x1="0" y1="0" x2="1" y2="1">
    <stop offset="0" stop-color="#f7f8fa"/>
    <stop offset=".22" stop-color="#8f98a3"/>
    <stop offset=".5" stop-color="#252b33"/>
    <stop offset=".78" stop-color="#aeb7c2"/>
    <stop offset="1" stop-color="#1b2027"/>
  </linearGradient>
  <linearGradient id="dark" x1="0" y1="0" x2="0" y2="1">
    <stop offset="0" stop-color="#303844"/>
    <stop offset=".55" stop-color="#111820"/>
    <stop offset="1" stop-color="#06090d"/>
  </linearGradient>
  <radialGradient id="shine" cx=".45" cy=".35" r=".65">
    <stop offset="0" stop-color="#ffffff" stop-opacity=".6"/>
    <stop offset=".38" stop-color="#94a5b8" stop-opacity=".2"/>
    <stop offset="1" stop-color="#000000" stop-opacity="0"/>
  </radialGradient>
  <filter id="shadow" x="-20%" y="-20%" width="140%" height="160%">
    <feDropShadow dx="0" dy="16" stdDeviation="12" flood-color="#000" flood-opacity=".55"/>
  </filter>
</defs>

<g filter="url(#shadow)">
  <path d="M174 111 C282 91 498 93 589 122 L642 176 L607 304 C511 338 304 337 202 309 L151 253 L155 151 Z"
        fill="url(#metal)" stroke="#d3d8dd" stroke-width="7"/>
  <path d="M192 140 C294 122 483 120 565 143 L602 180 L578 282 C493 306 324 307 231 286 L187 247 L184 166 Z"
        fill="#727b86" opacity=".38"/>
  <ellipse cx="337" cy="150" rx="164" ry="67" fill="url(#shine)" opacity=".40"/>
  <path d="M574 126 L642 62 L665 78 L607 150 Z" fill="url(#metal)" stroke="#919aa5" stroke-width="4"/>
  <text x="420" y="284" fill="#303741" font-size="38" font-family="Arial" font-weight="800">P790</text>
</g>
</svg>